<svg width="20" height="22" viewBox="0 0 20 22" fill="none" xmlns="http://www.w3.org/2000/svg">
<path d="M19.1209 14.5559C18.3072 13.1562 17.875 11.1472 17.875 8.75C17.875 6.66142 17.0453 4.65838 15.5685 3.18153C14.0916 1.70469 12.0886 0.875 10 0.875C7.91142 0.875 5.90838 1.70469 4.43153 3.18153C2.95468 4.65838 2.125 6.66142 2.125 8.75C2.125 11.1481 1.69468 13.1562 0.880933 14.5559C0.714884 14.8414 0.626865 15.1656 0.625713 15.4958C0.624561 15.8261 0.710317 16.1509 0.874371 16.4375C1.03739 16.7243 1.27399 16.9624 1.55977 17.1272C1.84554 17.292 2.17012 17.3775 2.5 17.375H5.89187C5.9849 18.4003 6.45794 19.3537 7.21808 20.048C7.97822 20.7423 8.9705 21.1273 10 21.1273C11.0295 21.1273 12.0218 20.7423 12.7819 20.048C13.542 19.3537 14.0151 18.4003 14.1081 17.375H17.5C17.8294 17.377 18.1534 17.2913 18.4386 17.1265C18.7239 16.9617 18.96 16.7239 19.1228 16.4375C19.2876 16.1513 19.3741 15.8267 19.3738 15.4965C19.3735 15.1662 19.2863 14.8418 19.1209 14.5559ZM10 18.875C9.56775 18.8751 9.14875 18.7258 8.81391 18.4525C8.47906 18.1791 8.24895 17.7985 8.1625 17.375H11.8375C11.751 17.7985 11.5209 18.1791 11.1861 18.4525C10.8512 18.7258 10.4322 18.8751 10 18.875ZM3.12437 15.125C3.95406 13.4375 4.375 11.2944 4.375 8.75C4.375 7.25816 4.96763 5.82742 6.02252 4.77252C7.07741 3.71763 8.50815 3.125 10 3.125C11.4918 3.125 12.9226 3.71763 13.9775 4.77252C15.0324 5.82742 15.625 7.25816 15.625 8.75C15.625 11.2934 16.045 13.4375 16.8747 15.125H3.12437Z" fill="black"/>
</svg>
