<svg width="16" height="13" viewBox="0 0 16 13" fill="none" xmlns="http://www.w3.org/2000/svg">
<path d="M15.3367 2.43697L5.73674 12.037C5.65313 12.1209 5.55378 12.1875 5.44438 12.2329C5.33498 12.2783 5.21769 12.3017 5.09924 12.3017C4.98079 12.3017 4.8635 12.2783 4.75411 12.2329C4.64471 12.1875 4.54535 12.1209 4.46174 12.037L0.261742 7.83698C0.178024 7.75326 0.111616 7.65387 0.0663079 7.54449C0.0210002 7.4351 -0.00231933 7.31787 -0.00231934 7.19948C-0.00231934 7.08108 0.0210002 6.96384 0.0663079 6.85446C0.111616 6.74508 0.178024 6.64569 0.261742 6.56198C0.345459 6.47826 0.444847 6.41185 0.554229 6.36654C0.663612 6.32123 0.780847 6.29791 0.899242 6.29791C1.01764 6.29791 1.13487 6.32123 1.24425 6.36654C1.35364 6.41185 1.45302 6.47826 1.53674 6.56198L5.09999 10.1252L14.0632 1.16348C14.2323 0.9944 14.4616 0.899414 14.7007 0.899414C14.9399 0.899414 15.1692 0.9944 15.3382 1.16348C15.5073 1.33255 15.6023 1.56187 15.6023 1.80098C15.6023 2.04008 15.5073 2.2694 15.3382 2.43848L15.3367 2.43697Z" fill="white"/>
</svg>
